PathFileType	4	(X/Y/Z)	C:\Users\WrightLab\Desktop\Jo\P5V137.trc
DataRate	CameraRate	NumFrames	NumMarkers	Units	OrigDataRate	OrigDataStartFrame	OrigNumFrames
100.00	100.00	       50	19	mm	100.00	1	       534
Frame#	Time	Headset_Front			Headset_Back			Headset_Left			Headset_Right			Left_Shoulder			Right_Shoulder			Sternum			C7			Left Elbow			Right Elbow			Left Wrist			Right Wrist			Left ASIS			Right ASIS			S2			Left Knee			Right Knee			Left Ankle			Right Ankle			
		X1	Y1	Z1	X2	Y2	Z2	X3	Y3	Z3	X4	Y4	Z4	X5	Y5	Z5	X6	Y6	Z6	X7	Y7	Z7	X8	Y8	Z8	X9	Y9	Z9	X10	Y10	Z10	X11	Y11	Z11	X12	Y12	Z12	X13	Y13	Z13	X14	Y14	Z14	X15	Y15	Z15	X16	Y16	Z16	X17	Y17	Z17	X18	Y18	Z18	X19	Y19	Z19	

1	0.000																															-219.22598	1105.03052	-1062.35144				-172.30190	956.63824	-1138.96582	97.88878	927.35730	-1123.07715				-208.36427	475.68198	-1173.63953				-202.13657	75.22655	-1248.06726				
2	0.010																															-218.82498	1104.75415	-1061.16980				-172.39737	956.68890	-1137.98840	97.90250	927.34473	-1123.06897				-208.03394	475.48267	-1173.96277				-202.14586	75.22888	-1248.06860				
3	0.020																															-218.07085	1104.35303	-1061.10095				-170.96622	955.67584	-1138.05676	97.91329	926.54358	-1123.38086				-208.22682	475.29291	-1174.18469				-202.33762	74.91013	-1248.26440				
4	0.030																															-217.78378	1103.51831	-1060.38684				-170.96892	955.57422	-1137.73608	98.22640	926.12469	-1124.29297				-208.30383	474.12820	-1173.59241				-202.33376	74.87650	-1248.25928				
5	0.040																															-216.91634	1103.56665	-1059.80774				-171.09203	955.26819	-1137.38208	98.74027	925.72900	-1124.35486				-208.67163	474.31839	-1174.10583				-202.34666	74.84309	-1248.25623				
6	0.050																															-216.27792	1103.40161	-1059.40271				-170.95222	955.31085	-1137.03796	98.72946	925.69202	-1124.35168				-208.66165	474.28339	-1174.09766				-202.33051	74.83324	-1248.25293				
7	0.060																															-216.32477	1103.29541	-1058.26782				-170.88593	955.09656	-1136.76721	99.24818	925.76697	-1124.27966				-208.85008	474.00995	-1174.36548				-202.47374	74.90147	-1247.76404				
8	0.070																															-216.28793	1103.07361	-1057.54114				-169.55559	954.51251	-1135.83118	99.61539	925.28363	-1124.91846				-208.63698	473.57465	-1174.09680				-202.37149	74.81693	-1248.25549				
9	0.080																															-216.42717	1103.05347	-1056.66724				-168.70734	953.60895	-1135.24976	100.09895	924.95911	-1125.69739				-208.30920	473.38614	-1174.03857				-202.47122	74.84567	-1247.75598				
10	0.090																															-216.24007	1103.74731	-1056.14844				-168.27425	953.80444	-1133.95044	100.67050	924.84058	-1125.80432				-207.96693	472.91409	-1173.64233				-202.45546	74.79511	-1247.74719				
11	0.100																															-216.03998	1103.61780	-1056.12732				-167.71666	953.93805	-1133.30627	101.31756	924.45886	-1125.63184				-207.21500	473.10413	-1173.04688				-202.47836	74.81196	-1247.75220				
12	0.110																															-215.88179	1103.73071	-1054.56006				-166.80461	953.51727	-1132.88928	101.43469	924.17291	-1125.87769				-206.70778	472.49329	-1172.83337				-202.67125	74.57417	-1247.65613				
13	0.120																															-214.15842	1103.88208	-1053.55054				-166.49588	953.57281	-1131.52368	102.05971	924.22192	-1125.76208				-206.49249	472.52029	-1172.43982				-202.68549	74.58777	-1247.65967				
14	0.130																															-212.13669	1102.76245	-1053.13062				-165.96350	953.16455	-1129.95508	102.96516	923.55750	-1126.30347				-206.22578	472.57193	-1172.00818				-202.72447	74.58862	-1247.66431				
15	0.140																															-211.21968	1102.95557	-1051.71814				-164.15250	952.48969	-1130.07349	104.29557	923.44696	-1126.64478				-205.07452	472.22427	-1171.37280				-202.69934	74.54445	-1247.65527				
16	0.150																															-210.94400	1103.14673	-1050.35156				-163.14081	952.52319	-1129.09521	105.97594	923.60114	-1127.86548				-203.86932	471.65491	-1171.22961				-202.72992	74.55897	-1247.66089				
17	0.160																															-209.89491	1102.13965	-1049.79309				-161.54280	952.53076	-1127.18518	106.46475	922.49316	-1127.23962				-203.32722	472.03732	-1170.31201				-202.72786	74.53931	-1247.65784				
18	0.170																															-209.40770	1101.61157	-1048.68591				-159.75917	952.56848	-1125.98328	107.52698	922.53271	-1127.06909				-202.90741	471.71475	-1170.10999				-202.74879	74.57673	-1247.66553				
19	0.180																															-205.93988	1100.77832	-1047.47961				-159.40379	952.37286	-1124.35962	108.77741	922.83252	-1127.96643				-202.54350	471.42886	-1170.00220				-202.74940	74.55619	-1247.66272				
20	0.190																															-205.01366	1100.88281	-1045.77686				-156.93533	951.43756	-1123.02002	109.93922	922.57739	-1128.17700				-201.05202	470.71054	-1168.91943				-202.84731	74.56534	-1247.27258				
21	0.200																															-204.08105	1101.06030	-1044.32544				-155.28017	952.51074	-1121.69128	111.59204	922.24268	-1128.64905				-200.63261	470.91003	-1167.92859				-202.72694	74.54350	-1247.65833				
22	0.210																															-203.33156	1100.05969	-1042.72290				-153.40472	952.25208	-1118.92041	113.68294	922.41797	-1128.56274				-198.54984	471.40048	-1166.26733				-202.83829	74.59006	-1247.27490				
23	0.220																															-201.16333	1099.45630	-1041.81653				-151.42961	951.25421	-1118.19971	115.53466	922.78107	-1128.50208				-197.09067	470.92206	-1165.26746				-202.71843	74.61291	-1247.66699				
24	0.230																															-200.04930	1098.73206	-1039.57983				-149.85298	951.47052	-1116.09814	117.17631	922.27692	-1128.79785				-195.95822	470.44952	-1163.76746				-202.70386	74.58613	-1247.66162				
25	0.240																															-196.47900	1097.16223	-1038.11560				-146.57716	950.57227	-1114.21716	119.46338	922.17273	-1129.79993				-195.13589	469.69751	-1162.51697				-202.69437	74.61742	-1247.66479				
26	0.250																															-195.32307	1096.67773	-1036.48840				-144.83202	950.53058	-1111.87878	120.76889	922.19757	-1129.26501				-193.81511	470.75369	-1160.30945				-202.48190	74.84821	-1247.75757				
27	0.260																															-193.98196	1096.69922	-1035.12939				-141.59526	951.02954	-1109.52612	123.48956	921.51764	-1129.20764				-192.00114	470.48343	-1158.74817				-202.23077	75.21100	-1247.58386				
28	0.270																															-192.74098	1095.99402	-1032.57544				-138.87247	950.22760	-1107.58337	125.59077	921.86670	-1129.92761				-189.79839	469.90546	-1155.22327				-202.01662	75.79839	-1246.57568				
29	0.280																															-190.30223	1095.59778	-1030.72302				-135.67834	950.40369	-1105.33948	127.41264	921.26678	-1130.58752				-188.19208	470.53906	-1153.95093				-201.96938	75.84724	-1246.57703				
30	0.290																															-188.43456	1094.83826	-1028.93396				-133.06807	950.61078	-1102.77954	129.83578	921.27802	-1129.82666				-186.36990	469.31406	-1151.39673				-201.89578	75.86766	-1246.57129				
31	0.300																															-187.51315	1093.93079	-1026.90991				-130.77202	951.43469	-1099.81885	132.41641	921.34503	-1129.64185				-182.66833	469.73227	-1148.09448				-201.50365	76.52333	-1245.98328				
32	0.310																															-186.14644	1092.95520	-1025.58716				-127.36906	950.47028	-1098.12463	136.26361	921.08087	-1130.24609				-181.40297	469.78955	-1145.18958				-201.42635	76.57751	-1245.98181				
33	0.320																															-185.46996	1092.70496	-1022.40570				-123.46208	951.01978	-1095.82776	137.38016	920.93518	-1129.93530				-178.53241	469.37845	-1141.50928				-201.15866	76.76244	-1246.17395				
34	0.330																															-181.70044	1091.36816	-1021.29987				-120.01737	951.07782	-1092.69141	141.15236	920.57031	-1129.79089				-175.37479	469.10367	-1138.42566				-200.76419	77.59750	-1245.92236				
35	0.340																															-180.95117	1090.35229	-1018.81049				-116.62808	950.70258	-1090.00989	143.91838	920.24371	-1130.38782				-172.57159	468.95151	-1134.35889				-200.47891	77.81091	-1245.44019				
36	0.350																															-180.00824	1090.12756	-1016.32202				-113.23479	950.24561	-1087.35559	146.81134	919.38916	-1130.29602				-168.74643	468.22736	-1130.19617				-199.80817	78.54349	-1245.07202				
37	0.360																															-179.53290	1090.24585	-1014.99255				-109.96355	949.45416	-1084.39307	150.03381	918.73669	-1130.81921				-163.63019	468.44003	-1125.44592				-198.92636	79.59664	-1244.07019				
38	0.370																															-178.09912	1089.92175	-1012.14685				-105.75455	948.85419	-1081.96423	152.75838	918.31989	-1130.17249				-157.85040	469.27472	-1119.66589				-199.30275	80.79469	-1243.72583				
39	0.380																															-176.38770	1089.42456	-1009.03040				-101.99885	947.36621	-1078.33289	157.27361	918.65399	-1132.50476				-150.56976	468.38065	-1113.92688				-199.04250	83.49273	-1241.01636				
40	0.390																															-175.80067	1089.20825	-1006.93750				-99.66400	947.08002	-1076.57483	160.45462	917.13446	-1131.96057				-141.84251	467.87097	-1106.30823				-196.86993	85.29321	-1239.96533				
41	0.400																															-175.26645	1088.82898	-1005.12274				-95.37007	944.24121	-1074.10571	164.06285	915.29736	-1133.38013				-135.34415	468.75430	-1096.49915				-194.62695	89.05277	-1238.71460				
42	0.410																															-174.26424	1088.11719	-1002.20386				-92.97137	943.79193	-1072.29346	167.58334	913.69995	-1133.29028				-128.31929	469.27637	-1084.49329				-191.66220	91.81014	-1236.03650				
43	0.420																															-173.17043	1087.10706	-999.18811				-88.47416	942.21991	-1069.86499	171.12617	912.52197	-1133.70569				-120.62682	468.70813	-1072.12830				-190.32990	96.46392	-1233.85559				
44	0.430																															-172.24384	1085.66284	-994.89319				-86.00289	941.41205	-1069.06726	174.09357	910.65424	-1133.81519				-112.47398	468.48547	-1059.98926				-187.82729	102.41948	-1230.74927				
45	0.440																															-171.02266	1085.99329	-993.13348				-82.00891	939.55664	-1065.63525	178.21786	909.96600	-1133.25391				-103.20362	468.51929	-1047.70129				-184.53055	107.55001	-1226.92749				
46	0.450				274.86819	1186.90625	-1335.93933																									-172.66170	1086.71252	-989.64990				-78.95739	939.24982	-1064.27234	181.11380	908.48248	-1133.59961				-92.09379	471.68164	-1034.36914				-179.92999	113.93584	-1223.33386				
47	0.460				276.01791	1186.00854	-1334.99097																									-171.48296	1086.28687	-986.84875				-75.19888	938.40167	-1061.05676	184.59383	908.20709	-1133.70288				-81.51005	475.15369	-1021.63898				-175.11983	119.86222	-1218.76965				
48	0.470				277.52307	1185.41260	-1333.65222																									-169.10010	1085.58838	-983.53619				-72.11780	938.46228	-1058.06360	187.62090	907.96802	-1132.56909				-69.42724	478.13281	-1010.26941				-169.94803	127.05622	-1214.01953				
49	0.480				277.99142	1185.53772	-1333.65723																									-167.57013	1085.35144	-980.90375				-69.03559	938.01984	-1055.77661	190.46815	907.68097	-1132.55591				-58.29124	482.80759	-998.50183				-164.69067	134.26924	-1209.99329				
50	0.490				279.20535	1185.70227	-1333.18811																									-167.19540	1085.56848	-978.00330				-66.22222	938.24615	-1052.18665	191.83298	907.12177	-1131.34778				-47.93767	487.36444	-987.68896				-158.05460	140.81996	-1204.36108				
